<?xml version="1.0" encoding="utf-8"?>
<!-- Generator: Adobe Illustrator 24.0.3, SVG Export Plug-In . SVG Version: 6.00 Build 0)  -->
<svg version="1.1" id="Layer_1" xmlns="http://www.w3.org/2000/svg" xmlns:xlink="http://www.w3.org/1999/xlink" x="0px" y="0px"
	 width="200px" height="43.926px" viewBox="0 0 200 43.926" style="enable-background:new 0 0 200 43.926;" xml:space="preserve">
<g>
	<path d="M11.398,0.258h4.219l11.4,26.091h-4.812l-2.628-6.254H7.327l-2.664,6.254H0L11.398,0.258z M17.911,16.061L13.434,5.698
		l-4.44,10.363H17.911z"/>
	<path d="M30.084,0.443h4.552v10.77h12.361V0.443h4.552v25.906h-4.552V15.431H34.636v10.917h-4.552V0.443z"/>
	<path d="M54.822,13.47v-0.074C54.822,6.031,60.337,0,68.182,0c4.775,0,7.661,1.665,10.14,4.033l-2.923,3.367
		c-2.073-1.924-4.293-3.22-7.253-3.22c-4.922,0-8.549,4.071-8.549,9.141v0.074c0,5.07,3.589,9.179,8.549,9.179
		c3.182,0,5.218-1.258,7.438-3.331l2.923,2.961c-2.701,2.813-5.662,4.589-10.511,4.589C60.448,26.793,54.822,20.908,54.822,13.47z"
		/>
</g>
<g>
	<path d="M0.456,35.245h0.824v3.514h4.417v-3.514H6.52v8.102H5.696v-3.833H1.279v3.833H0.456V35.245z"/>
	<path d="M16.656,39.296c0,0.618-0.107,1.187-0.321,1.705c-0.213,0.519-0.509,0.968-0.887,1.345
		c-0.378,0.377-0.824,0.673-1.338,0.887c-0.515,0.213-1.074,0.321-1.676,0.321c-0.604,0-1.162-0.107-1.676-0.321
		c-0.516-0.213-0.962-0.51-1.34-0.887C9.041,41.968,8.746,41.52,8.533,41c-0.213-0.518-0.321-1.086-0.321-1.705
		c0-0.617,0.107-1.186,0.321-1.705c0.213-0.519,0.509-0.967,0.887-1.344c0.378-0.378,0.824-0.673,1.34-0.888
		c0.515-0.213,1.073-0.32,1.676-0.32c0.602,0,1.162,0.106,1.676,0.32c0.515,0.215,0.961,0.51,1.338,0.888
		c0.378,0.378,0.673,0.825,0.887,1.344C16.549,38.11,16.656,38.678,16.656,39.296z M15.764,39.296c0-0.466-0.076-0.909-0.229-1.333
		s-0.372-0.795-0.657-1.116c-0.286-0.321-0.636-0.576-1.047-0.767c-0.412-0.191-0.877-0.286-1.395-0.286
		c-0.519,0-0.985,0.096-1.397,0.286c-0.412,0.191-0.761,0.446-1.046,0.767c-0.286,0.321-0.505,0.693-0.658,1.116
		s-0.228,0.867-0.228,1.333c0,0.466,0.075,0.909,0.228,1.333s0.372,0.795,0.658,1.116c0.285,0.321,0.634,0.576,1.046,0.767
		c0.412,0.191,0.877,0.286,1.397,0.286c0.518,0,0.984-0.096,1.395-0.286c0.412-0.191,0.761-0.446,1.047-0.767
		c0.285-0.321,0.504-0.693,0.657-1.116S15.764,39.761,15.764,39.296z"/>
	<path d="M20.946,43.347h-0.824V36h-2.712v-0.755h6.248V36h-2.712V43.347z"/>
	<path d="M25.786,42.591h4.336v0.755h-5.16v-8.102h5.023V36h-4.199v2.758h3.924v0.755h-3.924V42.591z"/>
	<path d="M32.617,42.591h3.776v0.755h-4.599v-8.102h0.824V42.591z"/>
	<path d="M41.394,36.583c-0.358-0.526-0.881-0.79-1.568-0.79c-0.213,0-0.423,0.03-0.629,0.087c-0.207,0.057-0.391,0.145-0.556,0.262
		c-0.163,0.119-0.296,0.272-0.395,0.458c-0.099,0.187-0.148,0.406-0.148,0.658c0,0.366,0.103,0.65,0.309,0.852
		c0.205,0.202,0.461,0.369,0.767,0.498c0.305,0.13,0.638,0.246,1.001,0.349c0.363,0.103,0.696,0.241,1.002,0.412
		c0.305,0.172,0.56,0.399,0.766,0.681c0.207,0.282,0.309,0.668,0.309,1.156c0,0.366-0.078,0.696-0.234,0.989
		c-0.156,0.294-0.363,0.54-0.618,0.738c-0.256,0.199-0.542,0.351-0.858,0.458c-0.316,0.107-0.636,0.161-0.955,0.161
		c-0.496,0-0.968-0.094-1.414-0.281c-0.446-0.187-0.826-0.494-1.139-0.921l0.755-0.539c0.175,0.298,0.419,0.536,0.73,0.715
		c0.311,0.179,0.68,0.269,1.107,0.269c0.204,0,0.411-0.033,0.615-0.098c0.205-0.064,0.39-0.16,0.553-0.285
		c0.163-0.127,0.299-0.281,0.405-0.463c0.106-0.184,0.16-0.394,0.16-0.63c0-0.282-0.059-0.517-0.177-0.704
		c-0.119-0.186-0.275-0.343-0.47-0.469c-0.194-0.126-0.415-0.231-0.663-0.315c-0.249-0.083-0.503-0.168-0.767-0.251
		c-0.264-0.084-0.519-0.179-0.767-0.286c-0.248-0.106-0.469-0.242-0.664-0.406c-0.194-0.164-0.35-0.37-0.469-0.617
		c-0.118-0.249-0.177-0.559-0.177-0.933c0-0.389,0.074-0.728,0.222-1.018c0.149-0.29,0.348-0.531,0.596-0.721
		c0.248-0.191,0.528-0.332,0.841-0.423c0.313-0.091,0.633-0.137,0.961-0.137c0.458,0,0.874,0.072,1.247,0.217
		c0.374,0.145,0.721,0.401,1.042,0.767L41.394,36.583z"/>
	<path d="M50.25,39.536h2.574v0.686H50.25v2.576h-0.687v-2.576h-2.574v-0.686h2.574v-2.576h0.687V39.536z"/>
	<path d="M58.913,43.347h-0.824v-8.102h2.494c0.824,0,1.474,0.179,1.951,0.537c0.476,0.359,0.714,0.9,0.714,1.625
		c0,0.565-0.177,1.04-0.532,1.425c-0.355,0.386-0.868,0.608-1.539,0.67l2.334,3.844h-1.006l-2.22-3.765h-1.373V43.347z
		 M58.913,38.827h1.464c0.366,0,0.678-0.038,0.933-0.114c0.254-0.076,0.459-0.178,0.612-0.304c0.153-0.126,0.264-0.275,0.332-0.446
		c0.068-0.172,0.103-0.357,0.103-0.556c0-0.191-0.034-0.371-0.103-0.543c-0.068-0.171-0.179-0.322-0.332-0.452
		c-0.153-0.13-0.357-0.231-0.612-0.304C61.054,36.036,60.743,36,60.376,36h-1.464V38.827z"/>
	<path d="M65.744,42.591h4.336v0.755h-5.16v-8.102h5.023V36h-4.199v2.758h3.924v0.755h-3.924V42.591z"/>
	<path d="M75.582,36.583c-0.358-0.526-0.881-0.79-1.568-0.79c-0.213,0-0.423,0.03-0.629,0.087c-0.207,0.057-0.391,0.145-0.556,0.262
		c-0.163,0.119-0.296,0.272-0.395,0.458c-0.099,0.187-0.148,0.406-0.148,0.658c0,0.366,0.103,0.65,0.309,0.852
		c0.205,0.202,0.461,0.369,0.767,0.498c0.305,0.13,0.638,0.246,1.001,0.349s0.696,0.241,1.002,0.412
		c0.305,0.172,0.56,0.399,0.766,0.681c0.207,0.282,0.309,0.668,0.309,1.156c0,0.366-0.078,0.696-0.234,0.989
		c-0.156,0.294-0.363,0.54-0.618,0.738c-0.256,0.199-0.542,0.351-0.858,0.458c-0.316,0.107-0.636,0.161-0.955,0.161
		c-0.496,0-0.968-0.094-1.414-0.281s-0.826-0.494-1.139-0.921l0.755-0.539c0.175,0.298,0.419,0.536,0.73,0.715
		c0.311,0.179,0.68,0.269,1.107,0.269c0.204,0,0.411-0.033,0.615-0.098c0.205-0.064,0.39-0.16,0.553-0.285
		c0.163-0.127,0.299-0.281,0.405-0.463c0.106-0.184,0.16-0.394,0.16-0.63c0-0.282-0.059-0.517-0.177-0.704
		c-0.119-0.186-0.275-0.343-0.47-0.469c-0.194-0.126-0.415-0.231-0.663-0.315c-0.249-0.083-0.503-0.168-0.767-0.251
		c-0.264-0.084-0.519-0.179-0.767-0.286c-0.248-0.106-0.469-0.242-0.664-0.406c-0.194-0.164-0.35-0.37-0.469-0.617
		c-0.118-0.249-0.177-0.559-0.177-0.933c0-0.389,0.074-0.728,0.222-1.018c0.149-0.29,0.348-0.531,0.596-0.721
		c0.248-0.191,0.528-0.332,0.841-0.423s0.633-0.137,0.961-0.137c0.458,0,0.874,0.072,1.247,0.217
		c0.374,0.145,0.721,0.401,1.042,0.767L75.582,36.583z"/>
	<path d="M86.052,39.296c0,0.618-0.107,1.187-0.321,1.705c-0.213,0.519-0.509,0.968-0.887,1.345
		c-0.378,0.377-0.824,0.673-1.338,0.887c-0.515,0.213-1.074,0.321-1.676,0.321c-0.604,0-1.162-0.107-1.676-0.321
		c-0.516-0.213-0.962-0.51-1.34-0.887c-0.378-0.378-0.673-0.826-0.887-1.345c-0.213-0.518-0.321-1.086-0.321-1.705
		c0-0.617,0.107-1.186,0.321-1.705c0.213-0.519,0.509-0.967,0.887-1.344c0.378-0.378,0.824-0.673,1.34-0.888
		c0.515-0.213,1.073-0.32,1.676-0.32c0.602,0,1.162,0.106,1.676,0.32c0.515,0.215,0.961,0.51,1.338,0.888
		c0.378,0.378,0.673,0.825,0.887,1.344C85.945,38.11,86.052,38.678,86.052,39.296z M85.16,39.296c0-0.466-0.076-0.909-0.229-1.333
		s-0.372-0.795-0.657-1.116c-0.286-0.321-0.636-0.576-1.047-0.767c-0.412-0.191-0.877-0.286-1.395-0.286
		c-0.519,0-0.985,0.096-1.397,0.286c-0.412,0.191-0.761,0.446-1.046,0.767c-0.286,0.321-0.505,0.693-0.658,1.116
		c-0.153,0.423-0.228,0.867-0.228,1.333c0,0.466,0.075,0.909,0.228,1.333c0.153,0.423,0.372,0.795,0.658,1.116
		c0.285,0.321,0.634,0.576,1.046,0.767c0.412,0.191,0.877,0.286,1.397,0.286c0.518,0,0.984-0.096,1.395-0.286
		c0.412-0.191,0.761-0.446,1.047-0.767c0.285-0.321,0.504-0.693,0.657-1.116S85.16,39.761,85.16,39.296z"/>
	<path d="M88.569,43.347h-0.824v-8.102h2.494c0.824,0,1.474,0.179,1.951,0.537c0.476,0.359,0.714,0.9,0.714,1.625
		c0,0.565-0.177,1.04-0.532,1.425c-0.355,0.386-0.868,0.608-1.539,0.67l2.334,3.844h-1.006l-2.22-3.765h-1.373V43.347z
		 M88.569,38.827h1.464c0.366,0,0.678-0.038,0.933-0.114c0.254-0.076,0.459-0.178,0.612-0.304c0.153-0.126,0.264-0.275,0.332-0.446
		c0.068-0.172,0.103-0.357,0.103-0.556c0-0.191-0.034-0.371-0.103-0.543c-0.068-0.171-0.179-0.322-0.332-0.452
		c-0.153-0.13-0.357-0.231-0.612-0.304C90.711,36.036,90.399,36,90.033,36h-1.464V38.827z"/>
	<path d="M97.243,43.347h-0.824V36h-2.712v-0.755h6.248V36h-2.712V43.347z"/>
	<path d="M105.091,36.583c-0.358-0.526-0.881-0.79-1.568-0.79c-0.213,0-0.423,0.03-0.629,0.087
		c-0.207,0.057-0.391,0.145-0.556,0.262c-0.163,0.119-0.296,0.272-0.395,0.458c-0.099,0.187-0.148,0.406-0.148,0.658
		c0,0.366,0.103,0.65,0.309,0.852c0.205,0.202,0.461,0.369,0.767,0.498c0.305,0.13,0.638,0.246,1.001,0.349s0.696,0.241,1.002,0.412
		c0.305,0.172,0.56,0.399,0.766,0.681c0.207,0.282,0.309,0.668,0.309,1.156c0,0.366-0.078,0.696-0.234,0.989
		c-0.156,0.294-0.363,0.54-0.618,0.738c-0.256,0.199-0.542,0.351-0.858,0.458c-0.316,0.107-0.636,0.161-0.955,0.161
		c-0.496,0-0.968-0.094-1.414-0.281s-0.826-0.494-1.139-0.921l0.755-0.539c0.175,0.298,0.419,0.536,0.73,0.715
		c0.311,0.179,0.68,0.269,1.107,0.269c0.204,0,0.411-0.033,0.615-0.098c0.205-0.064,0.39-0.16,0.553-0.285
		c0.163-0.127,0.299-0.281,0.405-0.463c0.106-0.184,0.16-0.394,0.16-0.63c0-0.282-0.059-0.517-0.177-0.704
		c-0.119-0.186-0.275-0.343-0.47-0.469c-0.194-0.126-0.415-0.231-0.663-0.315c-0.249-0.083-0.503-0.168-0.767-0.251
		c-0.264-0.084-0.519-0.179-0.767-0.286c-0.248-0.106-0.469-0.242-0.664-0.406c-0.194-0.164-0.35-0.37-0.469-0.617
		c-0.118-0.249-0.177-0.559-0.177-0.933c0-0.389,0.074-0.728,0.222-1.018c0.149-0.29,0.348-0.531,0.596-0.721
		c0.248-0.191,0.528-0.332,0.841-0.423s0.633-0.137,0.961-0.137c0.458,0,0.874,0.072,1.247,0.217
		c0.374,0.145,0.721,0.401,1.042,0.767L105.091,36.583z"/>
	<path d="M113.948,39.536h2.574v0.686h-2.574v2.576h-0.687v-2.576h-2.574v-0.686h2.574v-2.576h0.687V39.536z"/>
	<path d="M122.61,43.347h-0.824v-8.102h2.494c0.824,0,1.474,0.179,1.951,0.537c0.476,0.359,0.714,0.9,0.714,1.625
		c0,0.565-0.177,1.04-0.532,1.425c-0.355,0.386-0.868,0.608-1.539,0.67l2.334,3.844h-1.006l-2.22-3.765h-1.373V43.347z
		 M122.61,38.827h1.464c0.366,0,0.678-0.038,0.933-0.114c0.254-0.076,0.459-0.178,0.612-0.304c0.153-0.126,0.264-0.275,0.332-0.446
		c0.068-0.172,0.103-0.357,0.103-0.556c0-0.191-0.034-0.371-0.103-0.543c-0.068-0.171-0.179-0.322-0.332-0.452
		c-0.153-0.13-0.357-0.231-0.612-0.304C124.752,36.036,124.44,36,124.074,36h-1.464V38.827z"/>
	<path d="M129.441,42.591h4.336v0.755h-5.16v-8.102h5.023V36h-4.199v2.758h3.924v0.755h-3.924V42.591z"/>
	<path d="M139.28,36.583c-0.358-0.526-0.881-0.79-1.568-0.79c-0.213,0-0.423,0.03-0.629,0.087c-0.207,0.057-0.391,0.145-0.556,0.262
		c-0.163,0.119-0.296,0.272-0.395,0.458c-0.099,0.187-0.148,0.406-0.148,0.658c0,0.366,0.103,0.65,0.309,0.852
		c0.205,0.202,0.461,0.369,0.767,0.498c0.305,0.13,0.638,0.246,1.001,0.349c0.363,0.103,0.696,0.241,1.002,0.412
		c0.305,0.172,0.56,0.399,0.766,0.681c0.207,0.282,0.309,0.668,0.309,1.156c0,0.366-0.078,0.696-0.234,0.989
		c-0.156,0.294-0.363,0.54-0.618,0.738c-0.256,0.199-0.542,0.351-0.858,0.458c-0.316,0.107-0.636,0.161-0.955,0.161
		c-0.496,0-0.968-0.094-1.414-0.281s-0.826-0.494-1.139-0.921l0.755-0.539c0.175,0.298,0.419,0.536,0.73,0.715
		c0.311,0.179,0.68,0.269,1.107,0.269c0.204,0,0.411-0.033,0.615-0.098c0.205-0.064,0.39-0.16,0.553-0.285
		c0.163-0.127,0.299-0.281,0.405-0.463c0.106-0.184,0.16-0.394,0.16-0.63c0-0.282-0.059-0.517-0.177-0.704
		c-0.119-0.186-0.275-0.343-0.47-0.469c-0.194-0.126-0.415-0.231-0.663-0.315c-0.249-0.083-0.503-0.168-0.767-0.251
		c-0.264-0.084-0.519-0.179-0.767-0.286c-0.248-0.106-0.469-0.242-0.664-0.406c-0.194-0.164-0.35-0.37-0.469-0.617
		c-0.118-0.249-0.177-0.559-0.177-0.933c0-0.389,0.074-0.728,0.222-1.018c0.149-0.29,0.348-0.531,0.596-0.721
		c0.248-0.191,0.528-0.332,0.841-0.423c0.313-0.091,0.633-0.137,0.961-0.137c0.458,0,0.874,0.072,1.247,0.217
		c0.374,0.145,0.721,0.401,1.042,0.767L139.28,36.583z"/>
	<path d="M144.452,43.347h-0.824V36h-2.712v-0.755h6.248V36h-2.712V43.347z"/>
	<path d="M147.553,43.347h-0.961l3.524-8.102h0.801l3.523,8.102h-0.961l-0.892-2.128h-4.142L147.553,43.347z M148.754,40.463h3.513
		l-1.75-4.258L148.754,40.463z"/>
	<path d="M161.375,40.326c0,0.335-0.04,0.692-0.12,1.069c-0.081,0.378-0.232,0.727-0.453,1.048c-0.22,0.321-0.524,0.585-0.909,0.795
		c-0.385,0.21-0.879,0.315-1.481,0.315c-0.61,0-1.107-0.105-1.488-0.315c-0.381-0.21-0.682-0.475-0.904-0.795
		c-0.221-0.321-0.372-0.67-0.452-1.048c-0.081-0.378-0.121-0.734-0.121-1.069v-5.081h0.824v4.989c0,0.389,0.039,0.723,0.115,1.002
		c0.075,0.278,0.177,0.514,0.302,0.704c0.127,0.191,0.267,0.341,0.423,0.452c0.156,0.111,0.313,0.196,0.47,0.257
		c0.156,0.062,0.307,0.102,0.452,0.121c0.145,0.018,0.27,0.029,0.378,0.029c0.098,0,0.223-0.01,0.372-0.029
		c0.148-0.019,0.301-0.059,0.458-0.121c0.156-0.06,0.313-0.146,0.469-0.257c0.156-0.111,0.298-0.261,0.423-0.452
		c0.126-0.191,0.227-0.426,0.304-0.704c0.075-0.278,0.114-0.613,0.114-1.002v-4.989h0.824V40.326z"/>
	<path d="M164.304,43.347h-0.824v-8.102h2.494c0.824,0,1.474,0.179,1.951,0.537c0.476,0.359,0.714,0.9,0.714,1.625
		c0,0.565-0.177,1.04-0.532,1.425c-0.355,0.386-0.868,0.608-1.539,0.67l2.334,3.844h-1.006l-2.22-3.765h-1.373V43.347z
		 M164.304,38.827h1.464c0.366,0,0.678-0.038,0.933-0.114c0.254-0.076,0.459-0.178,0.612-0.304c0.153-0.126,0.264-0.275,0.332-0.446
		c0.068-0.172,0.103-0.357,0.103-0.556c0-0.191-0.034-0.371-0.103-0.543c-0.068-0.171-0.179-0.322-0.332-0.452
		c-0.153-0.13-0.357-0.231-0.612-0.304c-0.256-0.072-0.567-0.108-0.933-0.108h-1.464V38.827z"/>
	<path d="M170.172,43.347h-0.961l3.524-8.102h0.801l3.523,8.102h-0.961l-0.892-2.128h-4.142L170.172,43.347z M171.373,40.463h3.513
		l-1.75-4.258L171.373,40.463z"/>
	<path d="M184.062,42.111h0.023v-6.866h0.824v8.102h-1.029l-4.829-6.935h-0.023v6.935h-0.824v-8.102h1.029L184.062,42.111z"/>
	<path d="M189.749,43.347h-0.824V36h-2.712v-0.755h6.248V36h-2.712V43.347z"/>
	<path d="M197.598,36.583c-0.358-0.526-0.881-0.79-1.568-0.79c-0.213,0-0.423,0.03-0.629,0.087
		c-0.207,0.057-0.391,0.145-0.556,0.262c-0.163,0.119-0.296,0.272-0.395,0.458c-0.099,0.187-0.148,0.406-0.148,0.658
		c0,0.366,0.103,0.65,0.309,0.852c0.205,0.202,0.461,0.369,0.767,0.498c0.305,0.13,0.638,0.246,1.001,0.349
		c0.363,0.103,0.696,0.241,1.002,0.412c0.305,0.172,0.56,0.399,0.766,0.681c0.207,0.282,0.309,0.668,0.309,1.156
		c0,0.366-0.078,0.696-0.234,0.989c-0.156,0.294-0.363,0.54-0.618,0.738c-0.256,0.199-0.542,0.351-0.858,0.458
		c-0.316,0.107-0.636,0.161-0.955,0.161c-0.496,0-0.968-0.094-1.414-0.281s-0.826-0.494-1.139-0.921l0.755-0.539
		c0.175,0.298,0.419,0.536,0.73,0.715c0.311,0.179,0.68,0.269,1.107,0.269c0.204,0,0.411-0.033,0.615-0.098
		c0.205-0.064,0.39-0.16,0.553-0.285c0.163-0.127,0.299-0.281,0.405-0.463c0.106-0.184,0.16-0.394,0.16-0.63
		c0-0.282-0.059-0.517-0.177-0.704c-0.119-0.186-0.275-0.343-0.47-0.469c-0.194-0.126-0.415-0.231-0.663-0.315
		c-0.249-0.083-0.503-0.168-0.767-0.251c-0.264-0.084-0.519-0.179-0.767-0.286c-0.248-0.106-0.469-0.242-0.664-0.406
		c-0.194-0.164-0.35-0.37-0.469-0.617c-0.118-0.249-0.177-0.559-0.177-0.933c0-0.389,0.074-0.728,0.223-1.018
		c0.149-0.29,0.348-0.531,0.596-0.721c0.248-0.191,0.528-0.332,0.841-0.423c0.313-0.091,0.633-0.137,0.961-0.137
		c0.458,0,0.874,0.072,1.247,0.217c0.374,0.145,0.721,0.401,1.042,0.767L197.598,36.583z"/>
</g>
<g>
	<path d="M83.751,6.587h1.269v6.002h7.618V6.587h1.27v13.62h-1.27v-6.464h-7.618v6.464h-1.269V6.587z"/>
	<path d="M96.14,13.397c0-1.039,0.173-1.994,0.519-2.866c0.346-0.872,0.827-1.626,1.443-2.261c0.616-0.635,1.356-1.132,2.222-1.491
		c0.865-0.359,1.818-0.539,2.857-0.539c1.039,0,1.991,0.18,2.857,0.539c0.866,0.359,1.606,0.856,2.222,1.491
		c0.616,0.635,1.096,1.389,1.443,2.261c0.346,0.872,0.519,1.827,0.519,2.866s-0.174,1.998-0.519,2.876
		c-0.346,0.879-0.827,1.635-1.443,2.27c-0.616,0.635-1.356,1.129-2.222,1.481c-0.866,0.353-1.818,0.529-2.857,0.529
		c-1.039,0-1.991-0.176-2.857-0.529c-0.866-0.353-1.606-0.847-2.222-1.481c-0.616-0.635-1.096-1.391-1.443-2.27
		C96.313,15.395,96.14,14.435,96.14,13.397z M97.409,13.397c0,0.847,0.135,1.635,0.404,2.366c0.269,0.731,0.654,1.366,1.154,1.904
		c0.5,0.539,1.107,0.962,1.819,1.27c0.711,0.308,1.51,0.462,2.395,0.462s1.683-0.154,2.395-0.462
		c0.712-0.308,1.317-0.731,1.818-1.27c0.5-0.539,0.885-1.173,1.154-1.904c0.27-0.731,0.404-1.52,0.404-2.366
		c0-0.846-0.134-1.635-0.404-2.366c-0.269-0.731-0.654-1.366-1.154-1.905c-0.5-0.538-1.106-0.962-1.818-1.27
		c-0.712-0.307-1.51-0.461-2.395-0.461s-1.684,0.154-2.395,0.461c-0.712,0.308-1.318,0.731-1.819,1.27
		c-0.5,0.539-0.885,1.174-1.154,1.905C97.544,11.762,97.409,12.55,97.409,13.397z"/>
	<path d="M113.107,17.687c0.334,0.577,0.766,1.007,1.298,1.289c0.532,0.282,1.138,0.423,1.818,0.423c0.423,0,0.82-0.064,1.193-0.193
		c0.372-0.128,0.696-0.307,0.972-0.538c0.275-0.231,0.494-0.51,0.654-0.837c0.16-0.327,0.24-0.695,0.24-1.106
		c0-0.474-0.1-0.866-0.298-1.174c-0.199-0.308-0.464-0.561-0.798-0.76c-0.334-0.199-0.709-0.369-1.126-0.51
		c-0.417-0.141-0.846-0.282-1.289-0.423c-0.442-0.141-0.872-0.301-1.288-0.481c-0.417-0.179-0.793-0.413-1.126-0.702
		c-0.334-0.289-0.6-0.651-0.799-1.087c-0.199-0.436-0.298-0.974-0.298-1.616c0-0.603,0.118-1.138,0.356-1.606
		c0.237-0.468,0.557-0.859,0.961-1.173c0.404-0.314,0.869-0.551,1.395-0.712c0.525-0.16,1.077-0.24,1.654-0.24
		c0.744,0,1.433,0.132,2.068,0.394c0.635,0.263,1.183,0.702,1.645,1.318l-1.097,0.789c-0.321-0.449-0.696-0.786-1.125-1.01
		c-0.43-0.224-0.94-0.337-1.53-0.337c-0.41,0-0.801,0.055-1.173,0.163c-0.372,0.109-0.696,0.269-0.972,0.481
		c-0.276,0.212-0.497,0.478-0.664,0.798c-0.167,0.321-0.25,0.699-0.25,1.135c0,0.68,0.174,1.203,0.519,1.568
		c0.346,0.365,0.779,0.654,1.298,0.866c0.519,0.212,1.084,0.398,1.693,0.558c0.609,0.16,1.174,0.375,1.693,0.644
		c0.519,0.27,0.952,0.644,1.298,1.126c0.346,0.481,0.519,1.145,0.519,1.991c0,0.615-0.116,1.161-0.346,1.635
		c-0.231,0.475-0.542,0.875-0.933,1.202c-0.391,0.327-0.843,0.574-1.356,0.741c-0.513,0.166-1.046,0.25-1.597,0.25
		c-0.898,0-1.725-0.157-2.482-0.471c-0.757-0.314-1.404-0.843-1.943-1.587L113.107,17.687z"/>
	<path d="M123.706,6.587h3.925c0.474,0,0.971,0.055,1.49,0.164c0.519,0.109,0.994,0.298,1.424,0.568
		c0.429,0.269,0.782,0.638,1.058,1.106c0.276,0.469,0.414,1.055,0.414,1.76c0,0.616-0.112,1.148-0.336,1.597
		c-0.224,0.449-0.526,0.817-0.905,1.106c-0.378,0.289-0.814,0.503-1.308,0.644c-0.494,0.141-1.01,0.212-1.549,0.212h-2.943v6.464
		h-1.269V6.587z M124.976,12.589h2.886c0.359,0,0.712-0.041,1.058-0.125c0.346-0.083,0.654-0.218,0.923-0.404
		c0.27-0.186,0.488-0.433,0.654-0.741c0.167-0.308,0.25-0.686,0.25-1.135c0-0.436-0.087-0.808-0.26-1.116
		c-0.174-0.308-0.398-0.561-0.673-0.76c-0.276-0.199-0.593-0.343-0.953-0.433c-0.359-0.09-0.718-0.135-1.077-0.135h-2.809V12.589z"
		/>
	<path d="M135.018,6.587h1.269v13.62h-1.269V6.587z"/>
	<path d="M143.309,7.741h-4.656V6.587h10.581v1.154h-4.656v12.466h-1.27V7.741z"/>
	<path d="M154.467,6.587h1.308l5.732,13.62h-1.423l-1.482-3.617h-7.214l-1.539,3.617h-1.327L154.467,6.587z M155.063,7.972
		l-3.174,7.464h6.252L155.063,7.972z"/>
	<path d="M163.412,6.587h1.269v12.466h6.349v1.154h-7.618V6.587z"/>
	<path d="M173.3,6.587h1.269v13.62H173.3V6.587z"/>
	<path d="M181.436,7.741h-4.656V6.587h10.581v1.154h-4.656v12.466h-1.27V7.741z"/>
	<path d="M193.729,14.34l-5.001-7.753h1.52l4.117,6.464l4.213-6.464H200l-5.001,7.753v5.867h-1.27V14.34z"/>
</g>
</svg>
